<?xml version="1.0" standalone="no"?>
<!DOCTYPE svg PUBLIC "-//W3C//DTD SVG 1.1//EN" "http://www.w3.org/Graphics/SVG/1.1/DTD/svg11.dtd" >
<!--
2013-9-30: Created.
-->
<svg>
<metadata>
Created by iconfont
</metadata>
<defs>

<font id="iconfont" horiz-adv-x="1024" >
  <font-face
    font-family="iconfont"
    font-weight="500"
    font-stretch="normal"
    units-per-em="1024"
    ascent="896"
    descent="-128"
  />
    <missing-glyph />
    
    <glyph glyph-name="you" unicode="&#58888;" d="M327.6-54.8l435.8 436.2-435.8 439-45.4-45.1 390.9-393.8-390.8-391.1z"  horiz-adv-x="1024" />

    
    <glyph glyph-name="hongbao" unicode="&#59004;" d="M830.254649-128H193.745351A77.266948 77.266948 0 0 0 116.569663-50.824312V818.824312A77.277088 77.277088 0 0 0 193.745351 896h636.509298a77.266948 77.266948 0 0 0 77.175688-77.175688v-869.648624a77.256808 77.256808 0 0 0-77.175688-77.175688zM193.745351 835.758145a17.167053 17.167053 0 0 1-16.933833-16.933833v-869.648624a17.167053 17.167053 0 0 1 16.933833-16.943973h636.509298a17.167053 17.167053 0 0 1 16.943973 16.943973V818.824312a17.167053 17.167053 0 0 1-16.943973 16.933833zM511.665379 515.080031a117.745905 117.745905 0 0 0-64.378983 19.073376L123.089696 702.305349l29.882637 57.625731 327.370526-169.814905 1.551423-1.014002a52.991741 52.991741 0 0 1 59.532054 0l1.551423 1.014002 327.370527 169.814905 29.872497-57.625731-324.18656-168.151942a117.735765 117.735765 0 0 0-64.368844-19.073376zM489.266076 321.33468m10.14002 0l30.420058 0q10.140019 0 10.14002-10.140019l0-282.845702q0-10.140019-10.14002-10.140019l-30.420058 0q-10.140019 0-10.14002 10.140019l0 282.845702q0 10.140019 10.14002 10.140019ZM489.266076 321.33468m10.14002 0l30.420058 0q10.140019 0 10.14002-10.140019l0-282.845702q0-10.140019-10.14002-10.140019l-30.420058 0q-10.140019 0-10.14002 10.140019l0 282.845702q0 10.140019 10.14002 10.140019ZM347.589725 327.874993m10.14002 0l305.498504 0q10.140019 0 10.14002-10.14002l0-30.420058q0-10.140019-10.14002-10.140019l-305.498504 0q-10.140019 0-10.14002 10.140019l0 30.420058q0 10.140019 10.14002 10.14002ZM347.589725 327.874993m10.14002 0l305.498504 0q10.140019 0 10.14002-10.14002l0-30.420058q0-10.140019-10.14002-10.140019l-305.498504 0q-10.140019 0-10.14002 10.140019l0 30.420058q0 10.140019 10.14002 10.14002ZM388.41583 388.469024m7.170077 7.170077l21.510229 21.510229q7.170076 7.170076 14.340153 0l96.143556-96.143556q7.170076-7.170076 0-14.340153l-21.51023-21.510229q-7.170076-7.170076-14.340153 0l-96.143555 96.143556q-7.170076 7.170076 0 14.340153ZM388.41583 388.469024m7.170077 7.170077l21.510229 21.510229q7.170076 7.170076 14.340153 0l96.143556-96.143556q7.170076-7.170076 0-14.340153l-21.51023-21.510229q-7.170076-7.170076-14.340153 0l-96.143555 96.143556q-7.170076 7.170076 0 14.340153ZM488.378249 313.838573m7.170076 7.170077l100.667874 100.667873q7.170076 7.170076 14.340153 0l21.51023-21.510229q7.170076-7.170076 0-14.340153l-100.667874-100.667874q-7.170076-7.170076-14.340153 0l-21.51023 21.51023q-7.170076 7.170076 0 14.340153ZM488.378249 313.838573m7.170076 7.170077l100.667874 100.667873q7.170076 7.170076 14.340153 0l21.51023-21.510229q7.170076-7.170076 0-14.340153l-100.667874-100.667874q-7.170076-7.170076-14.340153 0l-21.51023 21.51023q-7.170076 7.170076 0 14.340153ZM377.482503 205.596499m10.140019 0l245.69267 0q10.140019 0 10.14002-10.14002l0-30.420058q0-10.140019-10.14002-10.14002l-245.69267 0q-10.140019 0-10.140019 10.14002l0 30.420058q0 10.140019 10.140019 10.14002ZM377.482503 205.596499m10.140019 0l245.69267 0q10.140019 0 10.14002-10.14002l0-30.420058q0-10.140019-10.14002-10.14002l-245.69267 0q-10.140019 0-10.140019 10.14002l0 30.420058q0 10.140019 10.140019 10.14002Z"  horiz-adv-x="1024" />

    
    <glyph glyph-name="wenhao" unicode="&#59165;" d="M511.51393 832.105784c-114.5315 0-229.061976-43.508933-316.720432-131.167389-174.676321-174.676321-174.676321-458.764542 0-633.440863 87.658456-87.658456 202.188932-131.167389 316.720432-131.167389s229.062999 43.508933 316.720432 131.167389c174.676321 174.676321 174.676321 458.764542 0 633.440863C740.576929 788.596851 626.045429 832.105784 511.51393 832.105784zM511.51393 787.316695c52.466955 0 103.653755-10.237155 151.641699-29.432333 49.907667-20.475334 94.695732-49.907667 133.086088-88.937588 39.029922-38.390355 68.463278-83.179444 88.937588-133.086088 19.195178-47.987944 29.432333-99.174744 29.432333-151.641699s-10.237155-103.653755-29.432333-151.641699c-20.47431-49.907667-49.907667-94.695732-88.937588-133.086088-38.390355-39.029922-83.179444-68.463278-133.086088-88.937588-47.987944-19.195178-99.174744-29.432333-151.641699-29.432333-52.466955 0-103.653755 10.237155-151.641699 29.432333-49.907667 20.475334-94.695732 49.907667-133.086088 88.937588-39.029922 38.390355-68.463278 83.179444-88.937588 133.086088-19.195178 47.987944-29.432333 99.174744-29.432333 151.641699s10.237155 103.653755 29.432333 151.641699c20.475334 49.907667 49.907667 94.695732 88.937588 133.086088 38.390355 39.029922 83.179444 68.463278 133.086088 88.937588C407.860175 777.07954 459.046974 787.316695 511.51393 787.316695zM511.51393 221.699544c-18.555611 0-34.55091-15.355733-34.55091-34.55091 0-18.555611 15.996322-33.911344 34.55091-33.911344 19.195178 0 34.55091 15.355733 34.55091 33.911344C546.065863 206.342788 530.709107 221.699544 511.51393 221.699544zM512.154519 615.200686c-42.2298 0-76.141144-10.877745-101.734032-33.911344-25.593911-22.394033-41.589211-55.026244-46.707788-97.895611l58.225099-7.0383c4.479011 31.991622 15.355733 55.665811 31.352055 70.381977 15.996322 15.355733 35.831067 22.394033 59.505255 22.394033 24.953322 0 46.068222-8.317433 63.343677-24.953322 16.635889-15.996322 24.953322-35.1915 24.953322-57.585533 0-11.517311-2.559289-23.034623-8.317433-33.271778-5.758144-10.237155-18.555611-23.674189-37.750789-40.949644-19.834744-17.275455-33.271778-30.072923-40.949644-39.029922-9.597589-12.156878-17.275455-24.313755-21.754466-36.470633-6.398734-15.996322-9.597589-35.1915-9.597589-56.945967l0.639566-17.275455 53.746088 0c0.639566 22.394033 1.919722 39.029922 4.479011 48.627511 3.198855 10.237155 7.0383 19.195178 12.796444 26.873044 5.758144 7.677866 17.275455 19.834744 35.831067 35.831067 26.873044 24.313755 45.428655 44.789089 55.026244 61.424978 8.958022 16.635889 14.0766 35.1915 14.0766 55.026244 0 34.55091-13.437034 63.984267-40.310078 88.298022C592.773651 603.043808 556.942585 615.200686 512.154519 615.200686z"  horiz-adv-x="1024" />

    
    <glyph glyph-name="jian" unicode="&#58893;" d="M512-128C229.238154-128 0 101.23815400000001 0 384S229.238154 896 512 896s512-229.238154 512-512-229.238154-512-512-512z m236.307692 551.384615H275.692308a39.384615 39.384615 0 1 1 0-78.76923h472.615384a39.384615 39.384615 0 0 1 0 78.76923z"  horiz-adv-x="1024" />

    
    <glyph glyph-name="shop_car" unicode="&#58900;" d="M376.411 147.153c-52.906 0-95.8-41.173-95.8-91.967 0-50.795 42.894-91.968 95.8-91.968 52.925 0 95.819 41.173 95.819 91.968 0 50.793-42.893 91.967-95.819 91.967zM874.613 312.693l114.963 294.29c2.958 57.405-38.308 55.177-38.308 55.177h-670.655c18.265 84.441-57.491 128.749-57.491 128.749h-134.128c-76.318-20.713-19.163-91.968-19.163-91.968l114.983-18.395c0 0 59.494-347.562 76.636-423.039 17.142-75.478 38.328-73.572 38.328-73.572l574.836 0c40.611 62.813 0 73.572 0 73.572l-517.346-0v55.186h517.346zM759.65 147.153c-52.924 0-95.799-41.173-95.799-91.967 0-50.795 42.874-91.968 95.799-91.968 52.925 0 95.8 41.173 95.8 91.968 0 50.793-42.876 91.967-95.8 91.967z"  horiz-adv-x="1024" />

    
    <glyph glyph-name="crown" unicode="&#58976;" d="M1219.037 468.425l2.035-1.611q-1.003 0.848-2.035 1.611zM-21.633 466.107l3.675 2.911c-4.412-3.069-8.011-6.991-10.624-11.553zM107.611-145.289c-0.325-2.176-0.664-4.339-0.961-6.529 0.612 2.322 0.973 4.993 0.993 7.744zM75.035-176.38100000000009zM42.501-141.346q0.353 2.445 0.734 4.889c-0.496-2.07-0.793-4.455-0.82-6.903zM1157.814-133.75600000000009c0.409-2.558 0.777-5.13 1.145-7.702-0.102 3.089-0.601 6.021-1.451 8.801zM1092.422-150.56099999999992c-0.282 2.021-0.579 4.028-0.891 6.035 0.158-2.762 0.624-5.351 1.364-7.82zM1157.985 705.827c0 0 0 0 0 0-17.648 0-31.953-14.307-31.953-31.953 0-0.001 0-0.002 0-0.003 0-10.239 4.901-19.334 12.485-25.068l-334.867-261.003-190.241 431.614c11.057 5.186 18.577 16.225 18.577 29.019 0 17.648-14.307 31.953-31.953 31.953-17.648 0-31.953-14.307-31.953-31.953 0-12.795 7.521-23.834 18.382-28.937l-190.088-431.682-334.946 260.947c7.664 5.789 12.563 14.885 12.563 25.124 0 0.001 0 0.002 0 0.004 0 17.647-14.307 31.953-31.953 31.953-17.648 0-31.953-14.307-31.953-31.953 0-17.648 14.307-31.953 31.953-31.953 0 0 0 0 0 0 0.5-0.027 1.084-0.045 1.672-0.045 2.8 0 5.516 0.362 8.104 1.04l218.835-700.1h329.01l0.368-0.481 0.368 0.481h329.01l218.972 700.036c2.807-0.888 6.035-1.399 9.383-1.399 17.773 0 32.18 14.408 32.18 32.18 0 17.692-14.279 32.051-31.94 32.18z"  horiz-adv-x="1204" />

    
    <glyph glyph-name="tianjia" unicode="&#58883;" d="M512 825.717C267.486 825.717 69.268 627.954 69.268 384S267.486-57.716999999999985 512-57.716999999999985 954.732 140.04600000000005 954.732 384 756.514 825.717 512 825.717m223.045-488.321H558.603v-176.442c0-25.738-20.866-46.604-46.604-46.604s-46.604 20.866-46.604 46.604V337.39599999999996H288.953c-25.738 0-46.604 20.866-46.604 46.604s20.866 46.604 46.604 46.604h176.442V607.046c0 25.738 20.866 46.604 46.604 46.604s46.604-20.866 46.604-46.604v-176.442h176.442c25.738 0 46.604-20.866 46.604-46.604s-20.866-46.604-46.604-46.604z"  horiz-adv-x="1024" />

    
    <glyph glyph-name="Left" unicode="&#58897;" d="M734.2-49c-17.5-17.5-45.8-17.5-63.3 0L300.7 321.2c-35 35-35 91.7 0 126.6l372.9 373c17.3 17.3 45.3 17.5 62.8 0.5 17.9-17.4 18.1-46.1 0.5-63.8L395.7 416.2c-17.5-17.5-17.5-45.8 0-63.3l338.6-338.6c17.4-17.5 17.4-45.8-0.1-63.3z"  horiz-adv-x="1024" />

    
    <glyph glyph-name="fire" unicode="&#59183;" d="M880.114286 432.914286A397.131429 397.131429 0 0 1 785.371429 564.571429l-33.257143 30.514285a9.245714 9.245714 0 0 1-14.857143-3.771428l-14.857143-42.628572c-9.257143-26.742857-26.285714-54.057143-50.4-80.914285-1.6-1.714286-3.428571-2.171429-4.685714-2.285715-1.257143-0.114286-3.2 0.114286-4.914286 1.714286-1.6 1.371429-2.4 3.428571-2.285714 5.485714 4.228571 68.8-16.342857 146.4-61.371429 230.857143C561.485714 773.714286 509.714286 828.457143 445.028571 866.628571l-47.2 27.771429c-6.171429 3.657143-14.057143-1.142857-13.714285-8.342857l2.514285-54.857143c1.714286-37.485714-2.628571-70.628571-12.914285-98.171429-12.571429-33.714286-30.628571-65.028571-53.714286-93.142857a337.874286 337.874286 0 0 0-54.285714-52.685714 402.971429 402.971429 0 0 1-114.628572-138.857143A397.428571 397.428571 0 0 1 109.714286 272c0-53.942857 10.628571-106.171429 31.657143-155.428571a399.314286 399.314286 0 0 1 86.285714-126.742858c37.028571-36.571429 80-65.371429 127.885714-85.371428C405.142857-116.342857 457.714286-126.857143 512-126.857143s106.857143 10.514286 156.457143 31.2A398.4 398.4 0 0 1 796.342857-10.285714c37.028571 36.571429 66.057143 79.314286 86.285714 126.742857a393.371429 393.371429 0 0 1 31.657143 155.428571c0 55.771429-11.428571 109.942857-34.171428 161.028572zM741.714286 45.142857c-61.371429-60.8-142.857143-94.171429-229.714286-94.171428s-168.342857 33.371429-229.714286 94.171428c-61.142857 60.685714-94.857143 141.142857-94.857143 226.742857 0 49.714286 11.2 97.371429 33.257143 141.714286 21.485714 43.314286 53.485714 82.057143 92.342857 111.885714a399.542857 399.542857 0 0 1 66.971429 64.914286c28.571429 34.857143 50.971429 73.714286 66.514286 115.428571a274.285714 274.285714 0 0 1 13.828571 53.142858c27.542857-25.371429 50.628571-56 69.942857-91.885715 38.171429-71.542857 55.771429-135.2 52.342857-189.371428a84.582857 84.582857 0 0 1 27.885715-68.342857 83.84 83.84 0 0 1 61.028571-21.485715c22.514286 1.142857 43.2 11.085714 58.285714 27.885715 15.2 17.028571 28.342857 34.4 39.314286 52.114285 16-20.457143 29.371429-42.742857 40-66.742857 18.171429-40.914286 27.428571-84.457143 27.428572-129.257143 0-85.6-33.714286-166.171429-94.857143-226.742857z"  horiz-adv-x="1024" />

    
    <glyph glyph-name="right_9" unicode="&#58973;" d="M759 334.83L347-8.52c-41.69-34.74-105-5.1-105 49.16V727.36c0 54.26 63.28 83.9 105 49.16l412-343.35a64 64 0 0 0 0-98.34z"  horiz-adv-x="1024" />

    
    <glyph glyph-name="changyonglogo40" unicode="&#59170;" d="M517.741259 219.542414c-67.105351-3.637854-126.141932 36.759205-151.879106 91.833545-28.284183 60.517305-22.948665 120.268154 17.433044 173.59264 38.496779 50.837852 92.007507 71.033823 155.378813 63.46545 31.457456-3.75758 59.190077-16.672728 83.367733-37.193087 13.117762-11.140735 12.825097-16.119119-1.718131-24.465205-12.636808-7.255241-25.337061-14.395872-37.908378-21.765723-34.756595-20.361747-69.728084-40.370453-104.07945-61.402465-18.395976-11.256368-22.074761-29.214369-11.792581-47.845705 11.123338-20.149922 32.68747-24.840758 55.534827-11.631922 67.890226 39.261189 135.553279 78.912257 203.657376 117.804033 11.268648 6.433526 12.506848 12.979616 7.499811 23.883967-17.61724 38.361703-43.562145 69.872371-78.328973 93.444229-76.822666 52.086285-158.791539 60.431348-242.733347 20.86419-83.740216-39.473013-129.229247-108.788705-136.791479-200.144366-6.265704-75.734892 22.550599-139.857305 77.215616-192.627159 76.216869-73.571622 203.592908-85.148285 291.139823-26.002211 22.796192 15.395642 22.796192 15.395642 8.662287 38.911218-15.282055 25.418926-30.446429 30.143531-56.975643 17.425881C570.320779 225.65973899999995 544.299125 217.84270300000003 517.741259 219.542414zM748.179582 327.166597c-1.26276 18.193361-11.128455 32.971949-19.642362 48.208978-2.7793 4.976338-7.238868 3.061732-11.218506 0.791016-15.604396-8.933463-31.160697-17.943674-46.883797-26.660196-6.683213-3.705392-7.865131-8.192589-4.001127-14.705933 8.954953-15.093766 17.844413-30.227442 26.429952-45.528939 3.730974-6.647397 8.205892-8.16803 14.644535-4.097318 9.402137 5.942339 19.108197 11.453866 28.184923 17.853623C743.767086 308.72764299999994 748.511133 316.736037 748.179582 327.166597z"  horiz-adv-x="1024" />

    
    <glyph glyph-name="message" unicode="&#58884;" d="M609.607 804.518c138.817 0 277.639 0.005 416.455 0 57.674-0.005 99.871-41.973 99.884-99.513 0.035-213.362 0.032-426.723 0.005-640.089-0.008-58.009-41.96-100.044-100.089-100.054-277.639-0.058-555.277-0.053-832.92-0.005-50.933 0.008-89.893 32.044-98.92 81.277-1.156 6.312-1.282 12.879-1.282 19.326-0.063 212.915-0.076 425.835-0.036 638.751 0.008 58.567 41.885 100.303 100.447 100.308 138.818 0.005 277.639 0 416.455 0v0zM608.897 740.067c-138.603 0-277.209 0.008-415.818-0.008-22.486-0.005-35.706-12.965-35.709-35.032-0.019-213.598-0.019-427.196 0.032-640.799 0-3.536 0.142-7.196 1.027-10.594 4.099-15.773 16.633-24.219 35.541-24.219 276.763-0.005 553.527-0.005 830.29 0 24.447 0 37.232 12.728 37.232 37.044 0.005 211.813 0.005 423.625 0 635.442 0 25.83-12.322 38.17-38.12 38.17-138.158-0.005-276.312-0.005-414.472-0.005v0zM616.692 331.032c-38.947 0.585-70.495 3.067-100.215 15.607-9.165 3.866-18.129 8.74-26.242 14.491-73.866 52.375-147.504 105.071-221.258 157.603-11.678 8.317-17.161 19.433-14.63 33.495 2.321 12.915 10.397 21.566 23.166 25.111 11.117 3.085 20.905-0.12 30.157-6.75 53.111-38.072 106.353-75.969 159.549-113.925 15.795-11.272 32.135-21.865 47.242-33.992 17.665-14.18 37.46-21.91 59.651-24.652 33.095-4.085 65.919-3.638 98.018 6.335 6.879 2.138 13.643 5.648 19.536 9.83 73.478 52.156 146.804 104.518 220.107 156.916 11.357 8.116 23.308 10.125 35.822 3.724 21.959-11.237 23.522-40.589 2.969-55.388-31.312-22.545-62.809-44.835-94.219-67.241-40.674-29.014-81.621-57.647-121.897-87.202-23.153-16.987-48.897-26.452-76.88-30.286-15.883-2.174-31.959-2.906-40.875-3.678v0z"  horiz-adv-x="1263" />

    
    <glyph glyph-name="center_gold" unicode="&#58894;" d="M509.092 395.076c258.849 0 454.035 83.602 454.035 194.469C963.127 700.4 767.941 784 509.091 784c-258.848 0-454.048-83.602-454.048-194.457 0-110.868 195.201-194.468 454.049-194.468z m0 339.852c238.65 0 404.963-76.617 404.963-145.383 0-68.768-166.313-145.396-404.963-145.396-238.663 0-404.977 76.628-404.977 145.396 0.001 68.766 166.315 145.383 404.977 145.383z m-0.009-545.847c258.143 0 452.807 83.079 452.807 193.229 0 29.087-14.057 56.157-38.8 80.437-0.159 0.164-0.285 0.343-0.448 0.502-0.185 0.18-0.306 0.371-0.489 0.548l-0.123-0.135c-3.98 3.648-9.183 6.003-15.007 6.003-12.359 0-22.375-10.015-22.375-22.373 0-6.542 2.915-12.292 7.389-16.385l-0.089-0.097c14.934-15.014 23.351-33.354 23.351-48.5 0-69.361-166.817-146.64-406.215-146.64-239.387 0-406.205 77.278-406.205 146.64 0 17.279 4.858 32.067 23.9 48.895 0.229 0.218 0.46 0.409 0.681 0.637 0.147 0.126 0.257 0.25 0.406 0.379l-0.091 0.087c3.658 3.982 6.02 9.195 6.02 15.029 0 12.358-10.017 22.373-22.375 22.373a22.294 22.294 0 0 1-15.815-6.551l-0.132 0.129c-25.061-24.409-39.18-51.687-39.18-80.977-0.001-110.15 194.661-193.229 452.791-193.229zM922.87 258.17c-0.18 0.177-0.302 0.368-0.485 0.543l-0.122-0.134c-3.98 3.648-9.183 6.005-15.009 6.005-12.355 0-22.373-10.016-22.373-22.374 0-6.541 2.914-12.293 7.389-16.384l-0.09-0.098c14.935-15.015 23.351-33.355 23.351-48.499 0-69.364-166.815-146.64-406.214-146.64-239.385 0-406.204 77.277-406.204 146.64 0 17.279 4.858 32.067 23.898 48.895 0.229 0.217 0.461 0.409 0.681 0.637 0.147 0.127 0.258 0.25 0.406 0.38l-0.091 0.086c3.658 3.983 6.02 9.196 6.02 15.029 0 12.359-10.017 22.374-22.373 22.374a22.299 22.299 0 0 1-15.817-6.551l-0.131 0.127c-25.063-24.407-39.179-51.689-39.179-80.977C56.527 67.078 251.188-16 509.318-16c258.143 0 452.805 83.079 452.805 193.229 0 29.084-14.053 56.156-38.794 80.432-0.164 0.17-0.292 0.348-0.458 0.509z"  horiz-adv-x="1024" />

    
    <glyph glyph-name="location" unicode="&#58944;" d="M698.981453 714.672897c-136.411491 141.543848-357.561468 141.543848-493.972959 0-136.411491-141.565687-136.411491-371.102154 0-512.646002l246.98648-254.870653 246.986479 254.870653c136.411491 141.543848 136.411491 371.080314 0 512.646002zM451.994974 362.156426a109.17724 109.17724 0 0 0-109.155401 109.22092 109.19908 109.19908 0 0 0 109.155401 109.22092 109.19908 109.19908 0 0 0 109.1554-109.22092 109.19908 109.19908 0 0 0-109.1554-109.22092z"  horiz-adv-x="1024" />

    
    <glyph glyph-name="shopping" unicode="&#58993;" d="M512 384c-140.8 0-256 115.2-256 256 0 25.6 17.066667 42.666667 42.666667 42.666667s42.666667-17.066667 42.666666-42.666667c0-93.866667 76.8-170.666667 170.666667-170.666667s170.666667 76.8 170.666667 170.666667c0 25.6 17.066667 42.666667 42.666666 42.666667s42.666667-17.066667 42.666667-42.666667c0-140.8-115.2-256-256-256zM832-42.66666699999996h-640c-34.133333 0-68.266667 12.8-89.6 38.4-21.333333 25.6-34.133333 59.733333-29.866667 93.866667l68.266667 597.333333C149.333333 755.2 209.066667 810.666667 277.333333 810.666667h469.333334c68.266667 0 128-55.466667 136.533333-123.733334l68.266667-597.333333c4.266667-34.133333-8.533333-68.266667-29.866667-93.866667-21.333333-25.6-55.466667-38.4-89.6-38.4zM226.133333 678.4l-68.266666-597.333333c0-8.533333 0-21.333333 8.533333-25.6 4.266667-8.533333 17.066667-12.8 25.6-12.8h640c8.533333 0 21.333333 4.266667 25.6 8.533333 4.266667 8.533333 8.533333 17.066667 8.533333 25.6l-68.266666 597.333333c0 29.866667-25.6 51.2-51.2 51.2h-469.333334c-25.6 0-51.2-21.333333-51.2-46.933333z"  horiz-adv-x="1024" />

    
    <glyph glyph-name="contract_line" unicode="&#59124;" d="M146.3 822.94v-877.71h512l219.43 239.38V822.94H146.3z m512.01-769.46V201.23000000000002h135.44L658.31 53.48000000000002z m146.27 220.89H585.16v-256H219.44V749.8h585.14v-475.43zM292.59 676.66h438.86v-73.14H292.59zM292.59 530.37H658.3v-73.14H292.59zM292.59 384.09h219.43v-73.14H292.59z"  horiz-adv-x="1024" />

    
    <glyph glyph-name="si-glyph-head-set" unicode="&#58977;" d="M1002.56 465.088l-0.64-0.128V535.552c0 196.224-166.464 355.904-371.072 355.904H524.48c-204.608 0-371.008-159.616-371.008-355.904V464.64c-1.6 0-3.2 0.512-4.864 0.512-45.248 0-82.048-37.76-82.048-84.288v-171.968c0-46.592 36.8-84.096 82.048-84.096 3.968 0 8 0.704 11.84 1.216 37.056-110.784 171.584-196.224 338.496-212.096 17.792-23.488 25.472-40.384 79.936-40.384 69.888 0 122.432 27.52 122.432 61.504 0 33.92-52.544 61.504-122.432 61.504-54.016 0-61.504-16.64-79.616-39.808-150.72 15.04-271.104 90.24-299.904 186.496 28.608 0 52.224 38.912 52.224 65.728v7.808h0.384V539.264c0 163.008 97.152 231.552 272.512 231.552h106.368C805.76 770.816 896 704.512 896 538.56v-322.56h0.896v-7.04c0-46.592 48.128-78.144 93.824-78.144s94.592 31.552 94.592 78.144V380.928a83.584 83.584 0 0 1-82.752 84.16z"  horiz-adv-x="1088" />

    
    <glyph glyph-name="phone" unicode="&#58903;" d="M747 809H277c-30.9 0-56-25.1-56-56v-738c0-30.9 25.1-56 56-56h470c30.9 0 56 25.1 56 56V753c0 30.9-25.1 56-56 56z m-1-769c0-13.3-10.7-24-24-24H302c-13.3 0-24 10.7-24 24V728c0 13.3 10.7 24 24 24h420c13.3 0 24-10.7 24-24v-688zM512 109m-40 0a40 40 0 1 1 80 0 40 40 0 1 1-80 0Z"  horiz-adv-x="1024" />

    
    <glyph glyph-name="clock" unicode="&#58971;" d="M512 704C332.8 704 192 563.2 192 384s140.8-320 320-320 320 140.8 320 320S691.2 704 512 704zM512 128c-140.8 0-256 115.2-256 256s115.2 256 256 256 256-115.2 256-256S652.8 128 512 128zM544 396.8L544 576c0 19.2-12.8 32-32 32S480 595.2 480 576l0-192c0-6.4 6.4-19.2 6.4-25.6l102.4-102.4c6.4-6.4 12.8-6.4 25.6-6.4s19.2 0 25.6 6.4c12.8 12.8 12.8 32 0 44.8L544 396.8zM364.8 704C364.8 710.4 358.4 716.8 358.4 723.2l0 0C320 755.2 256 755.2 217.6 723.2L172.8 678.4C140.8 640 140.8 576 172.8 537.6 179.2 537.6 185.6 531.2 192 531.2 224 608 288 672 364.8 704zM851.2 678.4l-44.8 44.8c-38.4 38.4-96 38.4-134.4 0-6.4-6.4-6.4-12.8-12.8-19.2 76.8-38.4 140.8-96 172.8-172.8 6.4 6.4 12.8 6.4 19.2 12.8C883.2 576 883.2 640 851.2 678.4zM262.4 115.20000000000005l-25.6-25.6c-12.8-12.8-12.8-32 0-44.8 6.4-6.4 12.8-6.4 25.6-6.4s19.2 0 25.6 6.4l25.6 25.6c12.8 12.8 12.8 32 0 44.8S275.2 128 262.4 115.20000000000005zM761.6 115.20000000000005c-12.8 12.8-32 12.8-44.8 0s-12.8-32 0-44.8l25.6-25.6c6.4-6.4 12.8-6.4 25.6-6.4s19.2 0 25.6 6.4c12.8 12.8 12.8 32 0 44.8L761.6 115.20000000000005z"  horiz-adv-x="1024" />

    
    <glyph glyph-name="icon-test" unicode="&#58972;" d="M768 512l-256-256-256 256z"  horiz-adv-x="1024" />

    
    <glyph glyph-name="more" unicode="&#59003;" d="M816 288a80 80 0 1 0 0 160 80 80 0 0 0 0-160z m-288 0a80 80 0 1 0 0 160 80 80 0 0 0 0-160z m-288 0a80 80 0 1 0 0 160 80 80 0 0 0 0-160z"  horiz-adv-x="1024" />

    
    <glyph glyph-name="screen" unicode="&#58992;" d="M891.365879 785.170788l-318.74334-335.02183a44.109457 44.109457 0 0 1-13.127815-31.506756v-396.460002l-65.113961 71.415311V416.541752a44.109457 44.109457 0 0 1-13.127814 31.506755L132.053079 785.170788a13.127815 13.127815 0 0 0 9.452026 22.579841H879.813402a12.602702 12.602702 0 0 0 12.077589-7.876689 12.602702 12.602702 0 0 0-0.525112-14.703152z m84.543126 48.310358A101.346729 101.346729 0 0 1 879.813402 895.969543H141.505105A101.871842 101.871842 0 0 1 69.564681 722.157277L407.212074 398.162812v-322.419128a44.109457 44.109457 0 0 1 12.602702-30.981643l153.857988-157.533776a44.109457 44.109457 0 0 1 32.031868-13.652927 46.209908 46.209908 0 0 1 16.803602 3.150675 44.109457 44.109457 0 0 1 27.830968 40.958782V400.263262l305.615525 321.894015a101.346729 101.346729 0 0 1 19.954278 110.798756z"  horiz-adv-x="1024" />

    
    <glyph glyph-name="Shaperectangle2-24px" unicode="&#59251;" d="M256-128a128 128 0 0 0-128 128V768a128 128 0 0 0 128 128h512a128 128 0 0 0 128-128v-768a128 128 0 0 0-128-128H256z m-42.666667 128a42.666667 42.666667 0 0 1 42.666667-42.666667h512a42.666667 42.666667 0 0 1 42.666667 42.666667V768a42.666667 42.666667 0 0 1-42.666667 42.666667H256a42.666667 42.666667 0 0 1-42.666667-42.666667v-768z"  horiz-adv-x="1024" />

    
    <glyph glyph-name="hr" unicode="&#58890;" d="M63.6 406.4h896.7v-44.8H63.6z"  horiz-adv-x="1024" />

    
    <glyph glyph-name="search" unicode="&#58920;" d="M887.082 42.235l-188.91 189.455c50.776 58.735 78.479 132.9 78.479 211.324 0 86.46-33.669 167.744-94.804 228.881s-142.423 94.806-228.882 94.806c-86.46 0-167.744-33.669-228.881-94.806-61.137-61.137-94.806-142.422-94.806-228.881 0-86.459 33.669-167.745 94.806-228.882 61.137-61.135 142.422-94.804 228.881-94.804 36.684 0 72.687 6.094 107.011 18.113 12.507 4.379 19.094 18.068 14.715 30.575-4.38 12.506-18.065 19.094-30.577 14.715-29.212-10.23-59.88-15.416-91.149-15.416-152.020 0-275.699 123.677-275.699 275.699 0 152.022 123.679 275.699 275.699 275.699 152.022 0 275.699-123.679 275.699-275.699 0-73.539-28.6-142.678-80.534-194.725-0.068-0.064-0.14-0.119-0.207-0.187-9.382-9.357-9.405-24.548-0.047-33.933l205.228-205.82c4.687-4.7 10.838-7.052 16.989-7.052 6.129 0 12.259 2.333 16.942 7.004 9.382 9.357 9.405 24.548 0.047 33.933z"  horiz-adv-x="1024" />

    
    <glyph glyph-name="position" unicode="&#58905;" d="M501.76 603.591111c-77.368889 0-139.946667-62.577778-139.946667-138.808889s62.577778-138.808889 139.946667-138.808889c77.368889 0 139.946667 62.577778 139.946667 138.808889s-63.715556 138.808889-139.946667 138.808889z m0-221.866667c-45.511111 0-83.057778 36.408889-83.057778 81.92s37.546667 81.92 83.057778 81.92 83.057778-36.408889 83.057778-81.92-37.546667-81.92-83.057778-81.92zM500.622222 839.111111C293.546667 839.111111 125.155556 669.582222 125.155556 460.231111c0-100.124444 38.684444-195.697778 109.226666-267.377778l238.933334-242.346666c6.826667-6.826667 15.928889-10.24 25.031111-10.24h2.275555c9.102222 0 18.204444 3.413333 25.031111 10.24l241.208889 243.484444c69.404444 71.68 108.088889 166.115556 108.088889 266.24C876.088889 669.582222 707.697778 839.111111 500.622222 839.111111z m226.417778-605.297778c-1.137778-1.137778-76.231111-77.368889-226.417778-228.693333l-225.28 227.555556c-60.302222 61.44-93.297778 142.222222-93.297778 227.555555C182.044444 637.724444 325.404444 782.222222 500.622222 782.222222s318.577778-144.497778 318.577778-321.991111c0-85.333333-32.995556-166.115556-92.16-226.417778z"  horiz-adv-x="1024" />

    
    <glyph glyph-name="emaxcitygerenxinxitubiaoji03" unicode="&#58910;" d="M864 832l-704 0C142.336 832 128 817.664 128 800l0-832C128-49.664 142.336-64 160-64l704 0c17.664 0 32 14.336 32 32l0 832C896 817.664 881.664 832 864 832zM832 0 192 0 192 768l640 0L832 0zM353.92 576c17.6 0 32 14.336 32 32S371.584 640 353.92 640L353.28 640C335.616 640 321.6 625.664 321.6 608S336.256 576 353.92 576zM353.92 384c17.6 0 32 14.336 32 32S371.584 448 353.92 448L353.28 448C335.616 448 321.6 433.664 321.6 416S336.256 384 353.92 384zM353.92 192c17.6 0 32 14.336 32 32S371.584 256 353.92 256L353.28 256c-17.6 0-31.616-14.336-31.616-32S336.256 192 353.92 192zM480 576l192 0C689.664 576 704 590.336 704 608S689.664 640 672 640l-192 0C462.336 640 448 625.664 448 608S462.336 576 480 576zM480 384l192 0C689.664 384 704 398.336 704 416S689.664 448 672 448l-192 0C462.336 448 448 433.664 448 416S462.336 384 480 384zM480 192l192 0c17.664 0 32 14.336 32 32S689.664 256 672 256l-192 0C462.336 256 448 241.664 448 224S462.336 192 480 192z"  horiz-adv-x="1024" />

    
    <glyph glyph-name="user" unicode="&#58881;" d="M522.24 834.56c112.64 0 204.8-92.16 204.8-204.8s-92.16-204.8-204.8-204.8-204.8 92.16-204.8 204.8 92.16 204.8 204.8 204.8M522.24 885.76c-143.36 0-256-112.64-256-256s112.64-256 256-256 256 112.64 256 256-112.64 256-256 256zM512 424.96v-51.2c71.68 0 133.12-10.24 168.96-15.36 15.36 0 30.72-10.24 46.080-15.36 10.24-5.12 15.36-5.12 25.6-10.24 163.84-76.8 220.16-209.92 199.68-307.2-10.24-40.96-35.84-92.16-87.040-97.28h-711.68c-46.080 0-71.68 46.080-81.92 87.040-20.48 97.28 30.72 235.52 204.8 317.44 71.68 25.6 148.48 35.84 235.52 35.84v56.32M512 424.96c-76.8 0-168.96-10.24-256-40.96-337.92-158.72-276.48-501.76-102.4-501.76h716.8c179.2 15.36 220.16 353.28-102.4 501.76-5.12 0-46.080 15.36-76.8 20.48-46.080 10.24-107.52 20.48-179.2 20.48z"  horiz-adv-x="1024" />

    
    <glyph glyph-name="find" unicode="&#58912;" d="M512 839.121455c250.926545 0 455.098182-204.171636 455.098182-455.121455S762.926545-71.121455 512-71.121455 56.901818 133.050182 56.901818 384 261.073455 839.121455 512 839.121455M512 896C229.236364 896 0 666.763636 0 384c0-282.740364 229.236364-512 512-512s512 229.259636 512 512C1024 666.763636 794.763636 896 512 896zM804.608 594.548364c0.186182 2.141091-0.116364 4.189091-0.395636 6.306909-0.186182 1.303273 0.093091 2.56-0.256 3.886545-0.116364 0.465455-0.465455 0.768-0.605091 1.233455-0.628364 2.048-1.745455 3.84-2.839273 5.725091-0.884364 1.512727-1.582545 3.095273-2.699636 4.421818-1.186909 1.396364-2.676364 2.420364-4.119273 3.584-1.605818 1.303273-3.118545 2.629818-4.957091 3.560727-0.442182 0.232727-0.698182 0.651636-1.163636 0.861091-1.303273 0.581818-2.653091 0.535273-3.979637 0.930909-1.954909 0.581818-3.84 1.186909-5.888 1.373091a27.345455 27.345455 0 0 1-6.330182-0.395636c-1.303273-0.162909-2.536727 0.093091-3.84-0.232728l-359.656727-96.349091c-0.279273-0.069818-0.465455-0.279273-0.744727-0.372363-2.048-0.605091-3.816727-1.768727-5.678546-2.816-1.559273-0.861091-3.258182-1.466182-4.608-2.56-1.186909-0.977455-2.001455-2.327273-3.025454-3.490909-1.559273-1.745455-3.211636-3.397818-4.305455-5.445818-0.139636-0.232727-0.372364-0.372364-0.488727-0.605091L222.301091 184.785455c-0.674909-1.349818-0.698182-2.792727-1.163636-4.189091-0.698182-2.048-1.489455-4.026182-1.722182-6.213819-0.232727-2.210909 0.139636-4.352 0.418909-6.516363 0.162909-1.419636-0.116364-2.792727 0.279273-4.235637 0.069818-0.302545 0.279273-0.488727 0.372363-0.791272 0.349091-1.186909 1.024-2.210909 1.512727-3.351273 0.977455-2.210909 2.024727-4.352 3.467637-6.213818 0.768-1.000727 1.675636-1.792 2.56-2.699637 1.745455-1.745455 3.607273-3.258182 5.701818-4.491636 0.628364-0.372364 1.000727-0.977455 1.675636-1.326545 0.861091-0.442182 1.745455-0.605091 2.606546-0.954182 0.791273-0.302545 1.536-0.605091 2.350545-0.837818 2.792727-0.837818 5.632-1.419636 8.448-1.419637 2.536727 0 5.12 0.349091 7.703273 1.047273l0.069818 0.023273 0.349091 0.093091 378.251636 101.306181c0.093091 0.023273 0.162909 0.116364 0.279273 0.139637a29.556364 29.556364 0 0 1 9.309091 4.631273c0.768 0.535273 1.419636 1.186909 2.117818 1.792 1.978182 1.722182 3.677091 3.700364 5.189818 5.957818 0.512 0.768 1.070545 1.489455 1.489455 2.327272 0.302545 0.558545 0.721455 0.977455 1.000727 1.536l147.735273 324.25891c0.581818 1.28 0.512 2.606545 0.907636 3.909818 0.605091 2.001455 1.210182 3.886545 1.396364 5.981091zM606.254545 297.890909l-300.776727-80.570182 130.676364 258.048 285.882182 76.590546L606.254545 297.890909zM512 384m-34.909091 0a34.909091 34.909091 0 1 1 69.818182 0 34.909091 34.909091 0 1 1-69.818182 0Z"  horiz-adv-x="1024" />

    
    <glyph glyph-name="elment" unicode="&#59594;" d="M525.599654 33.62196400000005c-142.796363-7.699804-268.393164 78.198008-323.091772 195.395023-60.198467 128.696722-48.798757 255.893483 37.099056 369.290595 81.897914 108.197244 195.695016 151.096152 330.491582 134.996562 66.898296-7.999796 125.896794-35.499096 177.395482-79.097986 27.899289-23.699396 27.299305-34.299126-3.699906-51.998675-26.899315-15.399608-53.898627-30.599221-80.597947-46.298821-73.898118-43.298897-148.296223-85.897812-221.394361-130.596674-39.099004-23.899391-46.998803-62.098418-25.099361-101.797408 23.699396-42.898907 69.49823-52.798655 118.096992-24.69937C679.195742 382.11308799999995 823.192074 466.510939 967.988387 549.208832c23.999389 13.699651 26.599323 27.599297 15.999592 50.798707-37.499045 81.597922-92.697639 148.596215-166.595757 198.794936C653.896386 909.599654 479.600825 927.3992 301.005374 843.201345c-178.095464-83.997861-274.892999-231.394107-290.992589-425.789156-13.299661-161.095897 47.998778-297.492423 164.295816-409.789563 162.095872-156.496014 433.08897-181.095388 619.384225-55.298592 48.498765 32.799165 48.498765 32.799165 18.399531 82.797891-32.499172 54.098622-64.79835 64.098367-121.196913 37.099056-53.498637-25.599348-108.797229-42.198925-165.29579-38.599017zM1015.787169 262.51613399999997c-2.699931 38.699014-23.699396 70.098215-41.798935 102.597387-5.89985 10.59973-15.399608 6.499834-23.899392 1.699957-33.199154-18.999516-66.298311-38.199027-99.69746-56.698556-14.199638-7.899799-16.699575-17.399557-8.499784-31.299203 19.099514-32.099182 37.999032-64.298362 56.198569-96.897532 7.899799-14.099641 17.499554-17.399557 31.199205-8.699779 19.999491 12.599679 40.698963 24.399379 59.998472 37.999033 17.099564 12.099692 27.199307 29.099259 26.499325 51.298693z"  horiz-adv-x="1024" />

    


  </font>
</defs>
</svg>
